<svg width="451" height="170" viewBox="0 0 451 170" fill="none" xmlns="http://www.w3.org/2000/svg">
<path d="M25.9195 170C15.9176 170 0.914785 145.025 0.914785 125.045L23.0624 125.099C24.0064 123.625 25.0701 122.25 26.3524 121.017L3.00874 109.401C0.467589 107.741 -1.00024 105.353 0.792458 102.042C2.39189 99.71 4.53382 99.3388 7.55214 100.452L37.1626 115.364C41.1501 115.002 45.7784 114.921 50.0095 115.052V125.099H85.0161V110.024L85.0292 110.024C85.8958 106.474 87.3748 103.286 89.4536 100.746L67.8922 89.2371C66.0291 88.3942 64.8096 86.1618 65.0402 84.0154C65.6965 80.5979 68.1171 79.0537 72.1749 80.2501L99.9389 95.0695C105.097 94.9129 111.036 94.8577 116.922 94.9132V110.049L145.942 110.08V85.1051H155.944V74.8026C155.944 65.0896 166.01 55.1347 176.417 55.1347H185.95V110.08L220.511 110.024L220.492 44.9855H230.494V30.2088C218.102 31.0453 208.775 34.463 195.487 30.0546V10.1449C208.775 14.5523 218.102 11.1349 230.494 10.2994V5.16647C230.398 2.70419 232.413 0.342488 234.87 0.0335814C237.741 -0.328138 240.609 2.28866 240.496 5.16647V44.9855H260.031C270.438 44.9855 280.503 54.9049 280.503 64.5841V74.8499L290.768 74.8489V84.899H310.841C316.451 84.899 321.857 87.7671 325.739 91.9651C334.019 87.7917 342.442 82.7557 350.988 79.7171C353.262 79.6844 355.443 81.3982 355.952 83.6179C356.461 85.8377 355.244 88.3325 353.183 89.2957L330.758 100.602C331.501 105.029 331.45 110.246 331.071 115.049L361.452 115.067V101.097C365.818 101.097 370.086 100.714 374.269 101.531L403.81 80.7941C406.608 79.1076 409.464 79.711 410.946 85.3459C411.453 88.4316 410.241 91.9 408.187 93.2389L384.897 109.392C386.178 111.106 387.215 113.019 388.18 115.067L451 115.055L410.992 170H25.9195Z" fill="#33FF00"/>
</svg>
