<svg width="733" height="276" viewBox="0 0 733 276" fill="none" xmlns="http://www.w3.org/2000/svg">
<path d="M42.1264 276C25.8706 276 1.48678 235.453 1.48678 203.015L37.4828 203.102C39.0171 200.709 40.7459 198.477 42.83 196.475L4.89003 177.615C0.759962 174.921 -1.62566 171.044 1.28796 165.668C3.88748 161.882 7.36871 161.279 12.2743 163.086L60.3995 187.297C66.8803 186.709 74.4026 186.578 81.2793 186.79V203.102H138.175V178.627L138.196 178.627C139.604 172.864 142.008 167.687 145.387 163.564L110.344 144.879C107.316 143.511 105.334 139.886 105.708 136.401C106.775 130.853 110.709 128.346 117.304 130.288L162.428 154.348C170.811 154.094 180.465 154.004 190.031 154.094V178.668L237.197 178.718V138.171H253.452V121.444C253.452 105.675 269.812 89.5128 286.726 89.5128H302.22V178.718L358.392 178.627L358.36 73.0354H374.616V49.0448C354.477 50.4029 339.318 55.9516 317.721 48.7945V16.4705C339.318 23.6261 354.477 18.0779 374.616 16.7213V8.38792C374.46 4.39033 377.736 0.556039 381.728 0.0545203C386.394 -0.532742 391.056 3.71571 390.872 8.38792V73.0354H422.622C439.536 73.0354 455.896 89.1397 455.896 104.854V121.521L472.578 121.519V137.836H505.203C514.321 137.836 523.107 142.492 529.417 149.308C542.873 142.532 556.562 134.356 570.453 129.423C574.149 129.37 577.693 132.152 578.52 135.756C579.347 139.36 577.371 143.41 574.021 144.974L537.573 163.33C538.781 170.518 538.698 178.988 538.083 186.785L587.459 186.815V164.135C594.556 164.135 601.493 163.512 608.29 164.838L656.303 131.172C660.851 128.434 665.492 129.413 667.901 138.562C668.725 143.571 666.755 149.202 663.417 151.376L625.565 177.601C627.646 180.385 629.332 183.489 630.9 186.815L733 186.796L667.977 276H42.1264Z" fill="#33FF00"/>
</svg>
